<?xml version="1.0" encoding="UTF-8" standalone="no"?><svg xmlns="http://www.w3.org/2000/svg" xmlns:xlink="http://www.w3.org/1999/xlink" contentStyleType="text/css" height="1463px" preserveAspectRatio="none" style="width:1681px;height:1463px;background:#FFFFFF;" version="1.1" viewBox="0 0 1681 1463" width="1681px" zoomAndPan="magnify"><defs/><g><rect fill="#FFFFFF" height="1271.0625" style="stroke:#181818;stroke-width:1.0;" width="10" x="25" y="92.6094"/><rect fill="#FFFFFF" height="225.4609" style="stroke:#181818;stroke-width:1.0;" width="10" x="659" y="114.9609"/><rect fill="#FFFFFF" height="225.4609" style="stroke:#181818;stroke-width:1.0;" width="10" x="659" y="370.7734"/><rect fill="#FFFFFF" height="225.4609" style="stroke:#181818;stroke-width:1.0;" width="10" x="659" y="626.5859"/><rect fill="#FFFFFF" height="225.4609" style="stroke:#181818;stroke-width:1.0;" width="10" x="659" y="882.3984"/><rect fill="#FFFFFF" height="225.4609" style="stroke:#181818;stroke-width:1.0;" width="10" x="659" y="1138.2109"/><rect fill="#FFFFFF" height="30.3516" style="stroke:#181818;stroke-width:1.0;" width="10" x="911" y="145.3125"/><rect fill="#FFFFFF" height="30.3516" style="stroke:#181818;stroke-width:1.0;" width="10" x="911" y="279.7188"/><rect fill="#FFFFFF" height="30.3516" style="stroke:#181818;stroke-width:1.0;" width="10" x="911" y="401.125"/><rect fill="#FFFFFF" height="30.3516" style="stroke:#181818;stroke-width:1.0;" width="10" x="911" y="535.5313"/><rect fill="#FFFFFF" height="30.3516" style="stroke:#181818;stroke-width:1.0;" width="10" x="911" y="656.9375"/><rect fill="#FFFFFF" height="30.3516" style="stroke:#181818;stroke-width:1.0;" width="10" x="911" y="791.3438"/><rect fill="#FFFFFF" height="30.3516" style="stroke:#181818;stroke-width:1.0;" width="10" x="911" y="912.75"/><rect fill="#FFFFFF" height="30.3516" style="stroke:#181818;stroke-width:1.0;" width="10" x="911" y="1047.1563"/><rect fill="#FFFFFF" height="30.3516" style="stroke:#181818;stroke-width:1.0;" width="10" x="911" y="1168.5625"/><rect fill="#FFFFFF" height="30.3516" style="stroke:#181818;stroke-width:1.0;" width="10" x="911" y="1302.9688"/><rect fill="#FFFFFF" height="73.7031" style="stroke:#181818;stroke-width:1.0;" width="10" x="1148" y="175.6641"/><rect fill="#FFFFFF" height="73.7031" style="stroke:#181818;stroke-width:1.0;" width="10" x="1148" y="431.4766"/><rect fill="#FFFFFF" height="73.7031" style="stroke:#181818;stroke-width:1.0;" width="10" x="1148" y="687.2891"/><rect fill="#FFFFFF" height="73.7031" style="stroke:#181818;stroke-width:1.0;" width="10" x="1148" y="943.1016"/><rect fill="#FFFFFF" height="73.7031" style="stroke:#181818;stroke-width:1.0;" width="10" x="1148" y="1198.9141"/><rect fill="#FFFFFF" height="30.3516" style="stroke:#181818;stroke-width:1.0;" width="10" x="1640" y="249.3672"/><rect fill="#FFFFFF" height="30.3516" style="stroke:#181818;stroke-width:1.0;" width="10" x="1640" y="505.1797"/><rect fill="#FFFFFF" height="30.3516" style="stroke:#181818;stroke-width:1.0;" width="10" x="1640" y="760.9922"/><rect fill="#FFFFFF" height="30.3516" style="stroke:#181818;stroke-width:1.0;" width="10" x="1640" y="1016.8047"/><rect fill="#FFFFFF" height="30.3516" style="stroke:#181818;stroke-width:1.0;" width="10" x="1640" y="1272.6172"/><line style="stroke:#181818;stroke-width:0.5;stroke-dasharray:5.0,5.0;" x1="30" x2="30" y1="82.6094" y2="1381.6719"/><line style="stroke:#181818;stroke-width:0.5;stroke-dasharray:5.0,5.0;" x1="664" x2="664" y1="82.6094" y2="1381.6719"/><line style="stroke:#181818;stroke-width:0.5;stroke-dasharray:5.0,5.0;" x1="915.5" x2="915.5" y1="82.6094" y2="1381.6719"/><line style="stroke:#181818;stroke-width:0.5;stroke-dasharray:5.0,5.0;" x1="1153" x2="1153" y1="82.6094" y2="1381.6719"/><line style="stroke:#181818;stroke-width:0.5;stroke-dasharray:5.0,5.0;" x1="1645" x2="1645" y1="82.6094" y2="1381.6719"/><text fill="#000000" font-family="sans-serif" font-size="14" lengthAdjust="spacing" textLength="44" x="5" y="79.5332">Cliente</text><ellipse cx="30" cy="13.5" fill="#E2E2F0" rx="8" ry="8" style="stroke:#181818;stroke-width:0.5;"/><path d="M30,21.5 L30,48.5 M17,29.5 L43,29.5 M30,48.5 L17,63.5 M30,48.5 L43,63.5 " fill="none" style="stroke:#181818;stroke-width:0.5;"/><text fill="#000000" font-family="sans-serif" font-size="14" lengthAdjust="spacing" textLength="44" x="5" y="1395.2051">Cliente</text><ellipse cx="30" cy="1406.7813" fill="#E2E2F0" rx="8" ry="8" style="stroke:#181818;stroke-width:0.5;"/><path d="M30,1414.7813 L30,1441.7813 M17,1422.7813 L43,1422.7813 M30,1441.7813 L17,1456.7813 M30,1441.7813 L43,1456.7813 " fill="none" style="stroke:#181818;stroke-width:0.5;"/><rect fill="#E2E2F0" height="31.6094" rx="2.5" ry="2.5" style="stroke:#181818;stroke-width:0.5;" width="114" x="607" y="50"/><text fill="#000000" font-family="sans-serif" font-size="14" lengthAdjust="spacing" textLength="100" x="614" y="71.5332">assistente Tugs</text><rect fill="#E2E2F0" height="31.6094" rx="2.5" ry="2.5" style="stroke:#181818;stroke-width:0.5;" width="114" x="607" y="1380.6719"/><text fill="#000000" font-family="sans-serif" font-size="14" lengthAdjust="spacing" textLength="100" x="614" y="1402.2051">assistente Tugs</text><rect fill="#E2E2F0" height="31.6094" rx="2.5" ry="2.5" style="stroke:#181818;stroke-width:0.5;" width="121" x="855.5" y="50"/><text fill="#000000" font-family="sans-serif" font-size="14" lengthAdjust="spacing" textLength="107" x="862.5" y="71.5332">voice recognition</text><rect fill="#E2E2F0" height="31.6094" rx="2.5" ry="2.5" style="stroke:#181818;stroke-width:0.5;" width="121" x="855.5" y="1380.6719"/><text fill="#000000" font-family="sans-serif" font-size="14" lengthAdjust="spacing" textLength="107" x="862.5" y="1402.2051">voice recognition</text><rect fill="#E2E2F0" height="31.6094" rx="2.5" ry="2.5" style="stroke:#181818;stroke-width:0.5;" width="40" x="1133" y="50"/><text fill="#000000" font-family="sans-serif" font-size="14" lengthAdjust="spacing" textLength="26" x="1140" y="71.5332">NLU</text><rect fill="#E2E2F0" height="31.6094" rx="2.5" ry="2.5" style="stroke:#181818;stroke-width:0.5;" width="40" x="1133" y="1380.6719"/><text fill="#000000" font-family="sans-serif" font-size="14" lengthAdjust="spacing" textLength="26" x="1140" y="1402.2051">NLU</text><rect fill="#E2E2F0" height="31.6094" rx="2.5" ry="2.5" style="stroke:#181818;stroke-width:0.5;" width="60" x="1615" y="50"/><text fill="#000000" font-family="sans-serif" font-size="14" lengthAdjust="spacing" textLength="46" x="1622" y="71.5332">Actions</text><rect fill="#E2E2F0" height="31.6094" rx="2.5" ry="2.5" style="stroke:#181818;stroke-width:0.5;" width="60" x="1615" y="1380.6719"/><text fill="#000000" font-family="sans-serif" font-size="14" lengthAdjust="spacing" textLength="46" x="1622" y="1402.2051">Actions</text><rect fill="#FFFFFF" height="1271.0625" style="stroke:#181818;stroke-width:1.0;" width="10" x="25" y="92.6094"/><rect fill="#FFFFFF" height="225.4609" style="stroke:#181818;stroke-width:1.0;" width="10" x="659" y="114.9609"/><rect fill="#FFFFFF" height="225.4609" style="stroke:#181818;stroke-width:1.0;" width="10" x="659" y="370.7734"/><rect fill="#FFFFFF" height="225.4609" style="stroke:#181818;stroke-width:1.0;" width="10" x="659" y="626.5859"/><rect fill="#FFFFFF" height="225.4609" style="stroke:#181818;stroke-width:1.0;" width="10" x="659" y="882.3984"/><rect fill="#FFFFFF" height="225.4609" style="stroke:#181818;stroke-width:1.0;" width="10" x="659" y="1138.2109"/><rect fill="#FFFFFF" height="30.3516" style="stroke:#181818;stroke-width:1.0;" width="10" x="911" y="145.3125"/><rect fill="#FFFFFF" height="30.3516" style="stroke:#181818;stroke-width:1.0;" width="10" x="911" y="279.7188"/><rect fill="#FFFFFF" height="30.3516" style="stroke:#181818;stroke-width:1.0;" width="10" x="911" y="401.125"/><rect fill="#FFFFFF" height="30.3516" style="stroke:#181818;stroke-width:1.0;" width="10" x="911" y="535.5313"/><rect fill="#FFFFFF" height="30.3516" style="stroke:#181818;stroke-width:1.0;" width="10" x="911" y="656.9375"/><rect fill="#FFFFFF" height="30.3516" style="stroke:#181818;stroke-width:1.0;" width="10" x="911" y="791.3438"/><rect fill="#FFFFFF" height="30.3516" style="stroke:#181818;stroke-width:1.0;" width="10" x="911" y="912.75"/><rect fill="#FFFFFF" height="30.3516" style="stroke:#181818;stroke-width:1.0;" width="10" x="911" y="1047.1563"/><rect fill="#FFFFFF" height="30.3516" style="stroke:#181818;stroke-width:1.0;" width="10" x="911" y="1168.5625"/><rect fill="#FFFFFF" height="30.3516" style="stroke:#181818;stroke-width:1.0;" width="10" x="911" y="1302.9688"/><rect fill="#FFFFFF" height="73.7031" style="stroke:#181818;stroke-width:1.0;" width="10" x="1148" y="175.6641"/><rect fill="#FFFFFF" height="73.7031" style="stroke:#181818;stroke-width:1.0;" width="10" x="1148" y="431.4766"/><rect fill="#FFFFFF" height="73.7031" style="stroke:#181818;stroke-width:1.0;" width="10" x="1148" y="687.2891"/><rect fill="#FFFFFF" height="73.7031" style="stroke:#181818;stroke-width:1.0;" width="10" x="1148" y="943.1016"/><rect fill="#FFFFFF" height="73.7031" style="stroke:#181818;stroke-width:1.0;" width="10" x="1148" y="1198.9141"/><rect fill="#FFFFFF" height="30.3516" style="stroke:#181818;stroke-width:1.0;" width="10" x="1640" y="249.3672"/><rect fill="#FFFFFF" height="30.3516" style="stroke:#181818;stroke-width:1.0;" width="10" x="1640" y="505.1797"/><rect fill="#FFFFFF" height="30.3516" style="stroke:#181818;stroke-width:1.0;" width="10" x="1640" y="760.9922"/><rect fill="#FFFFFF" height="30.3516" style="stroke:#181818;stroke-width:1.0;" width="10" x="1640" y="1016.8047"/><rect fill="#FFFFFF" height="30.3516" style="stroke:#181818;stroke-width:1.0;" width="10" x="1640" y="1272.6172"/><polygon fill="#181818" points="647,110.9609,657,114.9609,647,118.9609,651,114.9609" style="stroke:#181818;stroke-width:1.0;"/><line style="stroke:#181818;stroke-width:1.0;" x1="35" x2="653" y1="114.9609" y2="114.9609"/><text fill="#000000" font-family="sans-serif" font-size="13" lengthAdjust="spacing" textLength="449" x="42" y="110.1045">O cliente inicia a conversa e indica que quer saber sobre PowerBi Scorecards</text><polygon fill="#181818" points="899,141.3125,909,145.3125,899,149.3125,903,145.3125" style="stroke:#181818;stroke-width:1.0;"/><line style="stroke:#181818;stroke-width:1.0;" x1="669" x2="905" y1="145.3125" y2="145.3125"/><text fill="#000000" font-family="sans-serif" font-size="13" lengthAdjust="spacing" textLength="178" x="676" y="140.4561">A fala do cliente é reconhecida</text><polygon fill="#181818" points="1136,171.6641,1146,175.6641,1136,179.6641,1140,175.6641" style="stroke:#181818;stroke-width:1.0;"/><line style="stroke:#181818;stroke-width:1.0;" x1="916" x2="1142" y1="175.6641" y2="175.6641"/><text fill="#000000" font-family="sans-serif" font-size="13" lengthAdjust="spacing" textLength="208" x="923" y="170.8076">Texto reconhecido da fala do cliente</text><line style="stroke:#181818;stroke-width:1.0;" x1="1158" x2="1200" y1="206.0156" y2="206.0156"/><line style="stroke:#181818;stroke-width:1.0;" x1="1200" x2="1200" y1="206.0156" y2="219.0156"/><line style="stroke:#181818;stroke-width:1.0;" x1="1159" x2="1200" y1="219.0156" y2="219.0156"/><polygon fill="#181818" points="1169,215.0156,1159,219.0156,1169,223.0156,1165,219.0156" style="stroke:#181818;stroke-width:1.0;"/><text fill="#000000" font-family="sans-serif" font-size="13" lengthAdjust="spacing" textLength="468" x="1165" y="201.1592">Intent powerScorecards reconhecido com entidade projects=PowerBi Scorecards</text><polygon fill="#181818" points="1628,245.3672,1638,249.3672,1628,253.3672,1632,249.3672" style="stroke:#181818;stroke-width:1.0;"/><line style="stroke:#181818;stroke-width:1.0;" x1="1153" x2="1634" y1="249.3672" y2="249.3672"/><text fill="#000000" font-family="sans-serif" font-size="13" lengthAdjust="spacing" textLength="198" x="1160" y="244.5107">response= utter_powerScorecards</text><polygon fill="#181818" points="932,275.7188,922,279.7188,932,283.7188,928,279.7188" style="stroke:#181818;stroke-width:1.0;"/><line style="stroke:#181818;stroke-width:1.0;stroke-dasharray:2.0,2.0;" x1="926" x2="1644" y1="279.7188" y2="279.7188"/><text fill="#000000" font-family="sans-serif" font-size="13" lengthAdjust="spacing" textLength="133" x="938" y="274.8623">utter_powerScorecards</text><polygon fill="#181818" points="680,306.0703,670,310.0703,680,314.0703,676,310.0703" style="stroke:#181818;stroke-width:1.0;"/><line style="stroke:#181818;stroke-width:1.0;stroke-dasharray:2.0,2.0;" x1="674" x2="915" y1="310.0703" y2="310.0703"/><text fill="#000000" font-family="sans-serif" font-size="13" lengthAdjust="spacing" textLength="133" x="686" y="305.2139">utter_powerScorecards</text><polygon fill="#181818" points="46,336.4219,36,340.4219,46,344.4219,42,340.4219" style="stroke:#181818;stroke-width:1.0;"/><line style="stroke:#181818;stroke-width:1.0;stroke-dasharray:2.0,2.0;" x1="40" x2="663" y1="340.4219" y2="340.4219"/><text fill="#000000" font-family="sans-serif" font-size="13" lengthAdjust="spacing" textLength="600" x="52" y="335.5654">O assistente dá as informações sobre PowerBi Scorecards e pergunta se o cliente está com problemas</text><polygon fill="#181818" points="647,366.7734,657,370.7734,647,374.7734,651,370.7734" style="stroke:#181818;stroke-width:1.0;"/><line style="stroke:#181818;stroke-width:1.0;" x1="35" x2="653" y1="370.7734" y2="370.7734"/><text fill="#000000" font-family="sans-serif" font-size="13" lengthAdjust="spacing" textLength="231" x="42" y="365.917">O cliente nega que está com problemas</text><polygon fill="#181818" points="899,397.125,909,401.125,899,405.125,903,401.125" style="stroke:#181818;stroke-width:1.0;"/><line style="stroke:#181818;stroke-width:1.0;" x1="669" x2="905" y1="401.125" y2="401.125"/><text fill="#000000" font-family="sans-serif" font-size="13" lengthAdjust="spacing" textLength="178" x="676" y="396.2686">A fala do cliente é reconhecida</text><polygon fill="#181818" points="1136,427.4766,1146,431.4766,1136,435.4766,1140,431.4766" style="stroke:#181818;stroke-width:1.0;"/><line style="stroke:#181818;stroke-width:1.0;" x1="916" x2="1142" y1="431.4766" y2="431.4766"/><text fill="#000000" font-family="sans-serif" font-size="13" lengthAdjust="spacing" textLength="208" x="923" y="426.6201">Texto reconhecido da fala do cliente</text><line style="stroke:#181818;stroke-width:1.0;" x1="1158" x2="1200" y1="461.8281" y2="461.8281"/><line style="stroke:#181818;stroke-width:1.0;" x1="1200" x2="1200" y1="461.8281" y2="474.8281"/><line style="stroke:#181818;stroke-width:1.0;" x1="1159" x2="1200" y1="474.8281" y2="474.8281"/><polygon fill="#181818" points="1169,470.8281,1159,474.8281,1169,478.8281,1165,474.8281" style="stroke:#181818;stroke-width:1.0;"/><text fill="#000000" font-family="sans-serif" font-size="13" lengthAdjust="spacing" textLength="149" x="1165" y="456.9717">Intent deny é reconhecido</text><polygon fill="#181818" points="1628,501.1797,1638,505.1797,1628,509.1797,1632,505.1797" style="stroke:#181818;stroke-width:1.0;"/><line style="stroke:#181818;stroke-width:1.0;" x1="1153" x2="1634" y1="505.1797" y2="505.1797"/><text fill="#000000" font-family="sans-serif" font-size="13" lengthAdjust="spacing" textLength="283" x="1160" y="500.3232">response= utter_thumbsup e utter_anything_else</text><polygon fill="#181818" points="932,531.5313,922,535.5313,932,539.5313,928,535.5313" style="stroke:#181818;stroke-width:1.0;"/><line style="stroke:#181818;stroke-width:1.0;stroke-dasharray:2.0,2.0;" x1="926" x2="1644" y1="535.5313" y2="535.5313"/><text fill="#000000" font-family="sans-serif" font-size="13" lengthAdjust="spacing" textLength="218" x="938" y="530.6748">utter_thumbsup e utter_anything_else</text><polygon fill="#181818" points="680,561.8828,670,565.8828,680,569.8828,676,565.8828" style="stroke:#181818;stroke-width:1.0;"/><line style="stroke:#181818;stroke-width:1.0;stroke-dasharray:2.0,2.0;" x1="674" x2="915" y1="565.8828" y2="565.8828"/><text fill="#000000" font-family="sans-serif" font-size="13" lengthAdjust="spacing" textLength="218" x="686" y="561.0264">utter_thumbsup e utter_anything_else</text><polygon fill="#181818" points="46,592.2344,36,596.2344,46,600.2344,42,596.2344" style="stroke:#181818;stroke-width:1.0;"/><line style="stroke:#181818;stroke-width:1.0;stroke-dasharray:2.0,2.0;" x1="40" x2="663" y1="596.2344" y2="596.2344"/><text fill="#000000" font-family="sans-serif" font-size="13" lengthAdjust="spacing" textLength="506" x="52" y="591.3779">O assistente mostra contentação e pergunta se o cliente precisa de mais alguma coisa</text><polygon fill="#181818" points="647,622.5859,657,626.5859,647,630.5859,651,626.5859" style="stroke:#181818;stroke-width:1.0;"/><line style="stroke:#181818;stroke-width:1.0;" x1="35" x2="653" y1="626.5859" y2="626.5859"/><text fill="#000000" font-family="sans-serif" font-size="13" lengthAdjust="spacing" textLength="176" x="42" y="621.7295">O cliente confirma que precisa</text><polygon fill="#181818" points="899,652.9375,909,656.9375,899,660.9375,903,656.9375" style="stroke:#181818;stroke-width:1.0;"/><line style="stroke:#181818;stroke-width:1.0;" x1="669" x2="905" y1="656.9375" y2="656.9375"/><text fill="#000000" font-family="sans-serif" font-size="13" lengthAdjust="spacing" textLength="178" x="676" y="652.0811">A fala do cliente é reconhecida</text><polygon fill="#181818" points="1136,683.2891,1146,687.2891,1136,691.2891,1140,687.2891" style="stroke:#181818;stroke-width:1.0;"/><line style="stroke:#181818;stroke-width:1.0;" x1="916" x2="1142" y1="687.2891" y2="687.2891"/><text fill="#000000" font-family="sans-serif" font-size="13" lengthAdjust="spacing" textLength="208" x="923" y="682.4326">Texto reconhecido da fala do cliente</text><line style="stroke:#181818;stroke-width:1.0;" x1="1158" x2="1200" y1="717.6406" y2="717.6406"/><line style="stroke:#181818;stroke-width:1.0;" x1="1200" x2="1200" y1="717.6406" y2="730.6406"/><line style="stroke:#181818;stroke-width:1.0;" x1="1159" x2="1200" y1="730.6406" y2="730.6406"/><polygon fill="#181818" points="1169,726.6406,1159,730.6406,1169,734.6406,1165,730.6406" style="stroke:#181818;stroke-width:1.0;"/><text fill="#000000" font-family="sans-serif" font-size="13" lengthAdjust="spacing" textLength="152" x="1165" y="712.7842">Intent affirm é reconhecido</text><polygon fill="#181818" points="1628,756.9922,1638,760.9922,1628,764.9922,1632,760.9922" style="stroke:#181818;stroke-width:1.0;"/><line style="stroke:#181818;stroke-width:1.0;" x1="1153" x2="1634" y1="760.9922" y2="760.9922"/><text fill="#000000" font-family="sans-serif" font-size="13" lengthAdjust="spacing" textLength="166" x="1160" y="756.1357">response= utter_possibilities</text><polygon fill="#181818" points="932,787.3438,922,791.3438,932,795.3438,928,791.3438" style="stroke:#181818;stroke-width:1.0;"/><line style="stroke:#181818;stroke-width:1.0;stroke-dasharray:2.0,2.0;" x1="926" x2="1644" y1="791.3438" y2="791.3438"/><text fill="#000000" font-family="sans-serif" font-size="13" lengthAdjust="spacing" textLength="101" x="938" y="786.4873">utter_possibilities</text><polygon fill="#181818" points="680,817.6953,670,821.6953,680,825.6953,676,821.6953" style="stroke:#181818;stroke-width:1.0;"/><line style="stroke:#181818;stroke-width:1.0;stroke-dasharray:2.0,2.0;" x1="674" x2="915" y1="821.6953" y2="821.6953"/><text fill="#000000" font-family="sans-serif" font-size="13" lengthAdjust="spacing" textLength="101" x="686" y="816.8389">utter_possibilities</text><polygon fill="#181818" points="46,848.0469,36,852.0469,46,856.0469,42,852.0469" style="stroke:#181818;stroke-width:1.0;"/><line style="stroke:#181818;stroke-width:1.0;stroke-dasharray:2.0,2.0;" x1="40" x2="663" y1="852.0469" y2="852.0469"/><text fill="#000000" font-family="sans-serif" font-size="13" lengthAdjust="spacing" textLength="322" x="52" y="847.1904">O assistente diz todas as possibilidades para perguntar</text><polygon fill="#181818" points="647,878.3984,657,882.3984,647,886.3984,651,882.3984" style="stroke:#181818;stroke-width:1.0;"/><line style="stroke:#181818;stroke-width:1.0;" x1="35" x2="653" y1="882.3984" y2="882.3984"/><text fill="#000000" font-family="sans-serif" font-size="13" lengthAdjust="spacing" textLength="307" x="42" y="877.542">O cliente pergunta sobre como contactar a Devscope</text><polygon fill="#181818" points="899,908.75,909,912.75,899,916.75,903,912.75" style="stroke:#181818;stroke-width:1.0;"/><line style="stroke:#181818;stroke-width:1.0;" x1="669" x2="905" y1="912.75" y2="912.75"/><text fill="#000000" font-family="sans-serif" font-size="13" lengthAdjust="spacing" textLength="178" x="676" y="907.8936">A fala do cliente é reconhecida</text><polygon fill="#181818" points="1136,939.1016,1146,943.1016,1136,947.1016,1140,943.1016" style="stroke:#181818;stroke-width:1.0;"/><line style="stroke:#181818;stroke-width:1.0;" x1="916" x2="1142" y1="943.1016" y2="943.1016"/><text fill="#000000" font-family="sans-serif" font-size="13" lengthAdjust="spacing" textLength="208" x="923" y="938.2451">Texto reconhecido da fala do cliente</text><line style="stroke:#181818;stroke-width:1.0;" x1="1158" x2="1200" y1="973.4531" y2="973.4531"/><line style="stroke:#181818;stroke-width:1.0;" x1="1200" x2="1200" y1="973.4531" y2="986.4531"/><line style="stroke:#181818;stroke-width:1.0;" x1="1159" x2="1200" y1="986.4531" y2="986.4531"/><polygon fill="#181818" points="1169,982.4531,1159,986.4531,1169,990.4531,1165,986.4531" style="stroke:#181818;stroke-width:1.0;"/><text fill="#000000" font-family="sans-serif" font-size="13" lengthAdjust="spacing" textLength="282" x="1165" y="968.5967">Intent explain_Devscope_contacts é reconhecido</text><polygon fill="#181818" points="1628,1012.8047,1638,1016.8047,1628,1020.8047,1632,1016.8047" style="stroke:#181818;stroke-width:1.0;"/><line style="stroke:#181818;stroke-width:1.0;" x1="1153" x2="1634" y1="1016.8047" y2="1016.8047"/><text fill="#000000" font-family="sans-serif" font-size="13" lengthAdjust="spacing" textLength="259" x="1160" y="1011.9482">response= utter_explain_Devscope_contacts</text><polygon fill="#181818" points="932,1043.1563,922,1047.1563,932,1051.1563,928,1047.1563" style="stroke:#181818;stroke-width:1.0;"/><line style="stroke:#181818;stroke-width:1.0;stroke-dasharray:2.0,2.0;" x1="926" x2="1644" y1="1047.1563" y2="1047.1563"/><text fill="#000000" font-family="sans-serif" font-size="13" lengthAdjust="spacing" textLength="194" x="938" y="1042.2998">utter_explain_Devscope_contacts</text><polygon fill="#181818" points="680,1073.5078,670,1077.5078,680,1081.5078,676,1077.5078" style="stroke:#181818;stroke-width:1.0;"/><line style="stroke:#181818;stroke-width:1.0;stroke-dasharray:2.0,2.0;" x1="674" x2="915" y1="1077.5078" y2="1077.5078"/><text fill="#000000" font-family="sans-serif" font-size="13" lengthAdjust="spacing" textLength="194" x="686" y="1072.6514">utter_explain_Devscope_contacts</text><polygon fill="#181818" points="46,1103.8594,36,1107.8594,46,1111.8594,42,1107.8594" style="stroke:#181818;stroke-width:1.0;"/><line style="stroke:#181818;stroke-width:1.0;stroke-dasharray:2.0,2.0;" x1="40" x2="663" y1="1107.8594" y2="1107.8594"/><text fill="#000000" font-family="sans-serif" font-size="13" lengthAdjust="spacing" textLength="353" x="52" y="1103.0029">dá os contactos e pergunta se precisa de mais alguma coisa</text><polygon fill="#181818" points="647,1134.2109,657,1138.2109,647,1142.2109,651,1138.2109" style="stroke:#181818;stroke-width:1.0;"/><line style="stroke:#181818;stroke-width:1.0;" x1="35" x2="653" y1="1138.2109" y2="1138.2109"/><text fill="#000000" font-family="sans-serif" font-size="13" lengthAdjust="spacing" textLength="123" x="42" y="1133.3545">O cliente diz que não</text><polygon fill="#181818" points="899,1164.5625,909,1168.5625,899,1172.5625,903,1168.5625" style="stroke:#181818;stroke-width:1.0;"/><line style="stroke:#181818;stroke-width:1.0;" x1="669" x2="905" y1="1168.5625" y2="1168.5625"/><text fill="#000000" font-family="sans-serif" font-size="13" lengthAdjust="spacing" textLength="178" x="676" y="1163.7061">A fala do cliente é reconhecida</text><polygon fill="#181818" points="1136,1194.9141,1146,1198.9141,1136,1202.9141,1140,1198.9141" style="stroke:#181818;stroke-width:1.0;"/><line style="stroke:#181818;stroke-width:1.0;" x1="916" x2="1142" y1="1198.9141" y2="1198.9141"/><text fill="#000000" font-family="sans-serif" font-size="13" lengthAdjust="spacing" textLength="208" x="923" y="1194.0576">Texto reconhecido da fala do cliente</text><line style="stroke:#181818;stroke-width:1.0;" x1="1158" x2="1200" y1="1229.2656" y2="1229.2656"/><line style="stroke:#181818;stroke-width:1.0;" x1="1200" x2="1200" y1="1229.2656" y2="1242.2656"/><line style="stroke:#181818;stroke-width:1.0;" x1="1159" x2="1200" y1="1242.2656" y2="1242.2656"/><polygon fill="#181818" points="1169,1238.2656,1159,1242.2656,1169,1246.2656,1165,1242.2656" style="stroke:#181818;stroke-width:1.0;"/><text fill="#000000" font-family="sans-serif" font-size="13" lengthAdjust="spacing" textLength="149" x="1165" y="1224.4092">Intent deny é reconhecido</text><polygon fill="#181818" points="1628,1268.6172,1638,1272.6172,1628,1276.6172,1632,1272.6172" style="stroke:#181818;stroke-width:1.0;"/><line style="stroke:#181818;stroke-width:1.0;" x1="1153" x2="1634" y1="1272.6172" y2="1272.6172"/><text fill="#000000" font-family="sans-serif" font-size="13" lengthAdjust="spacing" textLength="252" x="1160" y="1267.7607">response= utter_thumbsup e utter_goodbye</text><polygon fill="#181818" points="932,1298.9688,922,1302.9688,932,1306.9688,928,1302.9688" style="stroke:#181818;stroke-width:1.0;"/><line style="stroke:#181818;stroke-width:1.0;stroke-dasharray:2.0,2.0;" x1="926" x2="1644" y1="1302.9688" y2="1302.9688"/><text fill="#000000" font-family="sans-serif" font-size="13" lengthAdjust="spacing" textLength="187" x="938" y="1298.1123">utter_thumbsup e utter_goodbye</text><polygon fill="#181818" points="680,1329.3203,670,1333.3203,680,1337.3203,676,1333.3203" style="stroke:#181818;stroke-width:1.0;"/><line style="stroke:#181818;stroke-width:1.0;stroke-dasharray:2.0,2.0;" x1="674" x2="915" y1="1333.3203" y2="1333.3203"/><text fill="#000000" font-family="sans-serif" font-size="13" lengthAdjust="spacing" textLength="187" x="686" y="1328.4639">utter_thumbsup e utter_goodbye</text><polygon fill="#181818" points="41,1359.6719,31,1363.6719,41,1367.6719,37,1363.6719" style="stroke:#181818;stroke-width:1.0;"/><line style="stroke:#181818;stroke-width:1.0;stroke-dasharray:2.0,2.0;" x1="35" x2="663" y1="1363.6719" y2="1363.6719"/><text fill="#000000" font-family="sans-serif" font-size="13" lengthAdjust="spacing" textLength="272" x="47" y="1358.8154">o assistente mostra contentação e despede-se</text><!--MD5=[7a1add05fd16a8874e2c8768f0e79f45]
@startuml seqDiagScore

actor Cliente
participant Bot as "assistente Tugs"
participant speech_recognizer as "voice recognition"
participant NLU as "NLU"
participant Actions as "Actions"


activate Cliente

Cliente -> Bot: O cliente inicia a conversa e indica que quer saber sobre PowerBi Scorecards
activate Bot
Bot -> speech_recognizer: A fala do cliente é reconhecida
activate speech_recognizer
speech_recognizer -> NLU: Texto reconhecido da fala do cliente
deactivate speech_recognizer
activate NLU
NLU -> NLU: Intent powerScorecards reconhecido com entidade projects=PowerBi Scorecards
NLU -> Actions: response= utter_powerScorecards
deactivate NLU
activate Actions
deactivate NLU
Actions - -> speech_recognizer: utter_powerScorecards
deactivate Actions

activate speech_recognizer
speech_recognizer - -> Bot: utter_powerScorecards
deactivate speech_recognizer

Bot - -> Cliente: O assistente dá as informações sobre PowerBi Scorecards e pergunta se o cliente está com problemas
deactivate Bot

Cliente -> Bot: O cliente nega que está com problemas
activate Bot
Bot -> speech_recognizer: A fala do cliente é reconhecida
activate speech_recognizer
speech_recognizer -> NLU: Texto reconhecido da fala do cliente
deactivate speech_recognizer
activate NLU
NLU -> NLU: Intent deny é reconhecido 
NLU -> Actions: response= utter_thumbsup e utter_anything_else
deactivate NLU
activate Actions
deactivate NLU
Actions - -> speech_recognizer: utter_thumbsup e utter_anything_else
deactivate Actions

activate speech_recognizer
speech_recognizer - -> Bot: utter_thumbsup e utter_anything_else
deactivate speech_recognizer

Bot - -> Cliente: O assistente mostra contentação e pergunta se o cliente precisa de mais alguma coisa
deactivate Bot

Cliente -> Bot: O cliente confirma que precisa
activate Bot
Bot -> speech_recognizer: A fala do cliente é reconhecida
activate speech_recognizer
speech_recognizer -> NLU: Texto reconhecido da fala do cliente
deactivate speech_recognizer
activate NLU
NLU -> NLU: Intent affirm é reconhecido 
NLU -> Actions: response= utter_possibilities
deactivate NLU
activate Actions
deactivate NLU
Actions - -> speech_recognizer: utter_possibilities 
deactivate Actions

activate speech_recognizer
speech_recognizer - -> Bot: utter_possibilities
deactivate speech_recognizer

Bot - -> Cliente: O assistente diz todas as possibilidades para perguntar
deactivate Bot

Cliente -> Bot: O cliente pergunta sobre como contactar a Devscope
activate Bot
Bot -> speech_recognizer: A fala do cliente é reconhecida
activate speech_recognizer
speech_recognizer -> NLU: Texto reconhecido da fala do cliente
deactivate speech_recognizer
activate NLU
NLU -> NLU: Intent explain_Devscope_contacts é reconhecido 
NLU -> Actions: response= utter_explain_Devscope_contacts
deactivate NLU
activate Actions
deactivate NLU
Actions - -> speech_recognizer: utter_explain_Devscope_contacts 
deactivate Actions

activate speech_recognizer
speech_recognizer - -> Bot: utter_explain_Devscope_contacts
deactivate speech_recognizer

Bot - -> Cliente: dá os contactos e pergunta se precisa de mais alguma coisa
deactivate Bot

Cliente -> Bot: O cliente diz que não
activate Bot
Bot -> speech_recognizer: A fala do cliente é reconhecida
activate speech_recognizer
speech_recognizer -> NLU: Texto reconhecido da fala do cliente
deactivate speech_recognizer
activate NLU
NLU -> NLU: Intent deny é reconhecido 
NLU -> Actions: response= utter_thumbsup e utter_goodbye
deactivate NLU
activate Actions
deactivate NLU
Actions - -> speech_recognizer: utter_thumbsup e utter_goodbye
deactivate Actions

activate speech_recognizer
speech_recognizer - -> Bot: utter_thumbsup e utter_goodbye
deactivate speech_recognizer


Bot - -> Cliente: o assistente mostra contentação e despede-se 
deactivate Bot

deactivate Cliente

@enduml

PlantUML version 1.2022.7(Mon Aug 22 18:01:30 WAT 2022)
(GPL source distribution)
Java Runtime: Java(TM) SE Runtime Environment
JVM: Java HotSpot(TM) 64-Bit Server VM
Default Encoding: Cp1252
Language: pt
Country: PT
--></g></svg>