<?xml version="1.0" encoding="UTF-8" standalone="no"?><svg xmlns="http://www.w3.org/2000/svg" xmlns:xlink="http://www.w3.org/1999/xlink" contentStyleType="text/css" height="1329px" preserveAspectRatio="none" style="width:1861px;height:1329px;background:#FFFFFF;" version="1.1" viewBox="0 0 1861 1329" width="1861px" zoomAndPan="magnify"><defs/><g><rect fill="#FFFFFF" height="1136.6563" style="stroke:#181818;stroke-width:1.0;" width="10" x="25" y="92.6094"/><rect fill="#FFFFFF" height="225.4609" style="stroke:#181818;stroke-width:1.0;" width="10" x="439" y="114.9609"/><rect fill="#FFFFFF" height="225.4609" style="stroke:#181818;stroke-width:1.0;" width="10" x="439" y="370.7734"/><rect fill="#FFFFFF" height="225.4609" style="stroke:#181818;stroke-width:1.0;" width="10" x="439" y="626.5859"/><rect fill="#FFFFFF" height="195.1094" style="stroke:#181818;stroke-width:1.0;" width="10" x="439" y="882.3984"/><rect fill="#FFFFFF" height="30.3516" style="stroke:#181818;stroke-width:1.0;" width="10" x="791" y="145.3125"/><rect fill="#FFFFFF" height="30.3516" style="stroke:#181818;stroke-width:1.0;" width="10" x="791" y="279.7188"/><rect fill="#FFFFFF" height="30.3516" style="stroke:#181818;stroke-width:1.0;" width="10" x="791" y="401.125"/><rect fill="#FFFFFF" height="30.3516" style="stroke:#181818;stroke-width:1.0;" width="10" x="791" y="535.5313"/><rect fill="#FFFFFF" height="30.3516" style="stroke:#181818;stroke-width:1.0;" width="10" x="791" y="656.9375"/><rect fill="#FFFFFF" height="30.3516" style="stroke:#181818;stroke-width:1.0;" width="10" x="791" y="791.3438"/><rect fill="#FFFFFF" height="30.3516" style="stroke:#181818;stroke-width:1.0;" width="10" x="791" y="912.75"/><rect fill="#FFFFFF" height="73.7031" style="stroke:#181818;stroke-width:1.0;" width="10" x="976" y="175.6641"/><rect fill="#FFFFFF" height="30.3516" style="stroke:#181818;stroke-width:1.0;" width="10" x="976" y="431.4766"/><rect fill="#FFFFFF" height="30.3516" style="stroke:#181818;stroke-width:1.0;" width="10" x="976" y="687.2891"/><rect fill="#FFFFFF" height="30.3516" style="stroke:#181818;stroke-width:1.0;" width="10" x="976" y="943.1016"/><rect fill="#FFFFFF" height="30.3516" style="stroke:#181818;stroke-width:1.0;" width="10" x="1264" y="249.3672"/><rect fill="#FFFFFF" height="73.7031" style="stroke:#181818;stroke-width:1.0;" width="10" x="1264" y="461.8281"/><rect fill="#FFFFFF" height="73.7031" style="stroke:#181818;stroke-width:1.0;" width="10" x="1264" y="717.6406"/><rect fill="#FFFFFF" height="73.7031" style="stroke:#181818;stroke-width:1.0;" width="10" x="1264" y="973.4531"/><rect fill="#FFFFFF" height="151.7578" style="stroke:#181818;stroke-width:1.0;" width="10" x="1264" y="1077.5078"/><rect fill="#FFFFFF" height="91.0547" style="stroke:#181818;stroke-width:1.0;" width="10" x="1610" y="1107.8594"/><rect fill="#FFFFFF" height="30.3516" style="stroke:#181818;stroke-width:1.0;" width="10" x="1821" y="1138.2109"/><line style="stroke:#181818;stroke-width:0.5;stroke-dasharray:5.0,5.0;" x1="30" x2="30" y1="82.6094" y2="1247.2656"/><line style="stroke:#181818;stroke-width:0.5;stroke-dasharray:5.0,5.0;" x1="444" x2="444" y1="82.6094" y2="1247.2656"/><line style="stroke:#181818;stroke-width:0.5;stroke-dasharray:5.0,5.0;" x1="795.5" x2="795.5" y1="82.6094" y2="1247.2656"/><line style="stroke:#181818;stroke-width:0.5;stroke-dasharray:5.0,5.0;" x1="981" x2="981" y1="82.6094" y2="1247.2656"/><line style="stroke:#181818;stroke-width:0.5;stroke-dasharray:5.0,5.0;" x1="1269" x2="1269" y1="82.6094" y2="1247.2656"/><line style="stroke:#181818;stroke-width:0.5;stroke-dasharray:5.0,5.0;" x1="1614.5" x2="1614.5" y1="82.6094" y2="1247.2656"/><line style="stroke:#181818;stroke-width:0.5;stroke-dasharray:5.0,5.0;" x1="1826" x2="1826" y1="82.6094" y2="1247.2656"/><text fill="#000000" font-family="sans-serif" font-size="14" lengthAdjust="spacing" textLength="44" x="5" y="79.5332">Cliente</text><ellipse cx="30" cy="13.5" fill="#E2E2F0" rx="8" ry="8" style="stroke:#181818;stroke-width:0.5;"/><path d="M30,21.5 L30,48.5 M17,29.5 L43,29.5 M30,48.5 L17,63.5 M30,48.5 L43,63.5 " fill="none" style="stroke:#181818;stroke-width:0.5;"/><text fill="#000000" font-family="sans-serif" font-size="14" lengthAdjust="spacing" textLength="44" x="5" y="1260.7988">Cliente</text><ellipse cx="30" cy="1272.375" fill="#E2E2F0" rx="8" ry="8" style="stroke:#181818;stroke-width:0.5;"/><path d="M30,1280.375 L30,1307.375 M17,1288.375 L43,1288.375 M30,1307.375 L17,1322.375 M30,1307.375 L43,1322.375 " fill="none" style="stroke:#181818;stroke-width:0.5;"/><rect fill="#E2E2F0" height="31.6094" rx="2.5" ry="2.5" style="stroke:#181818;stroke-width:0.5;" width="114" x="387" y="50"/><text fill="#000000" font-family="sans-serif" font-size="14" lengthAdjust="spacing" textLength="100" x="394" y="71.5332">assistente Tugs</text><rect fill="#E2E2F0" height="31.6094" rx="2.5" ry="2.5" style="stroke:#181818;stroke-width:0.5;" width="114" x="387" y="1246.2656"/><text fill="#000000" font-family="sans-serif" font-size="14" lengthAdjust="spacing" textLength="100" x="394" y="1267.7988">assistente Tugs</text><rect fill="#E2E2F0" height="31.6094" rx="2.5" ry="2.5" style="stroke:#181818;stroke-width:0.5;" width="121" x="735.5" y="50"/><text fill="#000000" font-family="sans-serif" font-size="14" lengthAdjust="spacing" textLength="107" x="742.5" y="71.5332">voice recognition</text><rect fill="#E2E2F0" height="31.6094" rx="2.5" ry="2.5" style="stroke:#181818;stroke-width:0.5;" width="121" x="735.5" y="1246.2656"/><text fill="#000000" font-family="sans-serif" font-size="14" lengthAdjust="spacing" textLength="107" x="742.5" y="1267.7988">voice recognition</text><rect fill="#E2E2F0" height="31.6094" rx="2.5" ry="2.5" style="stroke:#181818;stroke-width:0.5;" width="40" x="961" y="50"/><text fill="#000000" font-family="sans-serif" font-size="14" lengthAdjust="spacing" textLength="26" x="968" y="71.5332">NLU</text><rect fill="#E2E2F0" height="31.6094" rx="2.5" ry="2.5" style="stroke:#181818;stroke-width:0.5;" width="40" x="961" y="1246.2656"/><text fill="#000000" font-family="sans-serif" font-size="14" lengthAdjust="spacing" textLength="26" x="968" y="1267.7988">NLU</text><rect fill="#E2E2F0" height="31.6094" rx="2.5" ry="2.5" style="stroke:#181818;stroke-width:0.5;" width="60" x="1239" y="50"/><text fill="#000000" font-family="sans-serif" font-size="14" lengthAdjust="spacing" textLength="46" x="1246" y="71.5332">Actions</text><rect fill="#E2E2F0" height="31.6094" rx="2.5" ry="2.5" style="stroke:#181818;stroke-width:0.5;" width="60" x="1239" y="1246.2656"/><text fill="#000000" font-family="sans-serif" font-size="14" lengthAdjust="spacing" textLength="46" x="1246" y="1267.7988">Actions</text><rect fill="#E2E2F0" height="31.6094" rx="2.5" ry="2.5" style="stroke:#181818;stroke-width:0.5;" width="151" x="1539.5" y="50"/><text fill="#000000" font-family="sans-serif" font-size="14" lengthAdjust="spacing" textLength="137" x="1546.5" y="71.5332">database connectivity</text><rect fill="#E2E2F0" height="31.6094" rx="2.5" ry="2.5" style="stroke:#181818;stroke-width:0.5;" width="151" x="1539.5" y="1246.2656"/><text fill="#000000" font-family="sans-serif" font-size="14" lengthAdjust="spacing" textLength="137" x="1546.5" y="1267.7988">database connectivity</text><text fill="#000000" font-family="sans-serif" font-size="14" lengthAdjust="spacing" textLength="56" x="1795" y="79.5332">db_Tugs</text><path d="M1808,29 C1808,19 1826,19 1826,19 C1826,19 1844,19 1844,29 L1844,55 C1844,65 1826,65 1826,65 C1826,65 1808,65 1808,55 L1808,29 " fill="#E2E2F0" style="stroke:#181818;stroke-width:1.5;"/><path d="M1808,29 C1808,39 1826,39 1826,39 C1826,39 1844,39 1844,29 " fill="none" style="stroke:#181818;stroke-width:1.5;"/><text fill="#000000" font-family="sans-serif" font-size="14" lengthAdjust="spacing" textLength="56" x="1795" y="1260.7988">db_Tugs</text><path d="M1808,1273.875 C1808,1263.875 1826,1263.875 1826,1263.875 C1826,1263.875 1844,1263.875 1844,1273.875 L1844,1299.875 C1844,1309.875 1826,1309.875 1826,1309.875 C1826,1309.875 1808,1309.875 1808,1299.875 L1808,1273.875 " fill="#E2E2F0" style="stroke:#181818;stroke-width:1.5;"/><path d="M1808,1273.875 C1808,1283.875 1826,1283.875 1826,1283.875 C1826,1283.875 1844,1283.875 1844,1273.875 " fill="none" style="stroke:#181818;stroke-width:1.5;"/><rect fill="#FFFFFF" height="1136.6563" style="stroke:#181818;stroke-width:1.0;" width="10" x="25" y="92.6094"/><rect fill="#FFFFFF" height="225.4609" style="stroke:#181818;stroke-width:1.0;" width="10" x="439" y="114.9609"/><rect fill="#FFFFFF" height="225.4609" style="stroke:#181818;stroke-width:1.0;" width="10" x="439" y="370.7734"/><rect fill="#FFFFFF" height="225.4609" style="stroke:#181818;stroke-width:1.0;" width="10" x="439" y="626.5859"/><rect fill="#FFFFFF" height="195.1094" style="stroke:#181818;stroke-width:1.0;" width="10" x="439" y="882.3984"/><rect fill="#FFFFFF" height="30.3516" style="stroke:#181818;stroke-width:1.0;" width="10" x="791" y="145.3125"/><rect fill="#FFFFFF" height="30.3516" style="stroke:#181818;stroke-width:1.0;" width="10" x="791" y="279.7188"/><rect fill="#FFFFFF" height="30.3516" style="stroke:#181818;stroke-width:1.0;" width="10" x="791" y="401.125"/><rect fill="#FFFFFF" height="30.3516" style="stroke:#181818;stroke-width:1.0;" width="10" x="791" y="535.5313"/><rect fill="#FFFFFF" height="30.3516" style="stroke:#181818;stroke-width:1.0;" width="10" x="791" y="656.9375"/><rect fill="#FFFFFF" height="30.3516" style="stroke:#181818;stroke-width:1.0;" width="10" x="791" y="791.3438"/><rect fill="#FFFFFF" height="30.3516" style="stroke:#181818;stroke-width:1.0;" width="10" x="791" y="912.75"/><rect fill="#FFFFFF" height="73.7031" style="stroke:#181818;stroke-width:1.0;" width="10" x="976" y="175.6641"/><rect fill="#FFFFFF" height="30.3516" style="stroke:#181818;stroke-width:1.0;" width="10" x="976" y="431.4766"/><rect fill="#FFFFFF" height="30.3516" style="stroke:#181818;stroke-width:1.0;" width="10" x="976" y="687.2891"/><rect fill="#FFFFFF" height="30.3516" style="stroke:#181818;stroke-width:1.0;" width="10" x="976" y="943.1016"/><rect fill="#FFFFFF" height="30.3516" style="stroke:#181818;stroke-width:1.0;" width="10" x="1264" y="249.3672"/><rect fill="#FFFFFF" height="73.7031" style="stroke:#181818;stroke-width:1.0;" width="10" x="1264" y="461.8281"/><rect fill="#FFFFFF" height="73.7031" style="stroke:#181818;stroke-width:1.0;" width="10" x="1264" y="717.6406"/><rect fill="#FFFFFF" height="73.7031" style="stroke:#181818;stroke-width:1.0;" width="10" x="1264" y="973.4531"/><rect fill="#FFFFFF" height="151.7578" style="stroke:#181818;stroke-width:1.0;" width="10" x="1264" y="1077.5078"/><rect fill="#FFFFFF" height="91.0547" style="stroke:#181818;stroke-width:1.0;" width="10" x="1610" y="1107.8594"/><rect fill="#FFFFFF" height="30.3516" style="stroke:#181818;stroke-width:1.0;" width="10" x="1821" y="1138.2109"/><polygon fill="#181818" points="427,110.9609,437,114.9609,427,118.9609,431,114.9609" style="stroke:#181818;stroke-width:1.0;"/><line style="stroke:#181818;stroke-width:1.0;" x1="35" x2="433" y1="114.9609" y2="114.9609"/><text fill="#000000" font-family="sans-serif" font-size="13" lengthAdjust="spacing" textLength="385" x="42" y="110.1045">o cliente inicia a chamada e diz que quer abrir um caso de suporte</text><polygon fill="#181818" points="779,141.3125,789,145.3125,779,149.3125,783,145.3125" style="stroke:#181818;stroke-width:1.0;"/><line style="stroke:#181818;stroke-width:1.0;" x1="449" x2="785" y1="145.3125" y2="145.3125"/><text fill="#000000" font-family="sans-serif" font-size="13" lengthAdjust="spacing" textLength="105" x="456" y="140.4561">fala é reconhecida</text><polygon fill="#181818" points="964,171.6641,974,175.6641,964,179.6641,968,175.6641" style="stroke:#181818;stroke-width:1.0;"/><line style="stroke:#181818;stroke-width:1.0;" x1="796" x2="970" y1="175.6641" y2="175.6641"/><text fill="#000000" font-family="sans-serif" font-size="13" lengthAdjust="spacing" textLength="156" x="803" y="170.8076">o texto reconhecido da fala</text><line style="stroke:#181818;stroke-width:1.0;" x1="986" x2="1028" y1="206.0156" y2="206.0156"/><line style="stroke:#181818;stroke-width:1.0;" x1="1028" x2="1028" y1="206.0156" y2="219.0156"/><line style="stroke:#181818;stroke-width:1.0;" x1="987" x2="1028" y1="219.0156" y2="219.0156"/><polygon fill="#181818" points="997,215.0156,987,219.0156,997,223.0156,993,219.0156" style="stroke:#181818;stroke-width:1.0;"/><text fill="#000000" font-family="sans-serif" font-size="13" lengthAdjust="spacing" textLength="199" x="993" y="201.1592">Intent open_support é reconhecido</text><polygon fill="#181818" points="1252,245.3672,1262,249.3672,1252,253.3672,1256,249.3672" style="stroke:#181818;stroke-width:1.0;"/><line style="stroke:#181818;stroke-width:1.0;" x1="981" x2="1258" y1="249.3672" y2="249.3672"/><text fill="#000000" font-family="sans-serif" font-size="13" lengthAdjust="spacing" textLength="240" x="988" y="244.5107">response= abrir o formulário form_support</text><polygon fill="#181818" points="812,275.7188,802,279.7188,812,283.7188,808,279.7188" style="stroke:#181818;stroke-width:1.0;"/><line style="stroke:#181818;stroke-width:1.0;stroke-dasharray:2.0,2.0;" x1="806" x2="1268" y1="279.7188" y2="279.7188"/><text fill="#000000" font-family="sans-serif" font-size="13" lengthAdjust="spacing" textLength="135" x="818" y="274.8623">formulário form_support</text><polygon fill="#181818" points="460,306.0703,450,310.0703,460,314.0703,456,310.0703" style="stroke:#181818;stroke-width:1.0;"/><line style="stroke:#181818;stroke-width:1.0;stroke-dasharray:2.0,2.0;" x1="454" x2="795" y1="310.0703" y2="310.0703"/><text fill="#000000" font-family="sans-serif" font-size="13" lengthAdjust="spacing" textLength="240" x="466" y="305.2139">formulário form_support e perguta o nome</text><polygon fill="#181818" points="46,336.4219,36,340.4219,46,344.4219,42,340.4219" style="stroke:#181818;stroke-width:1.0;"/><line style="stroke:#181818;stroke-width:1.0;stroke-dasharray:2.0,2.0;" x1="40" x2="443" y1="340.4219" y2="340.4219"/><text fill="#000000" font-family="sans-serif" font-size="13" lengthAdjust="spacing" textLength="248" x="52" y="335.5654">Começa o formulário e pergunta pelo nome</text><polygon fill="#181818" points="427,366.7734,437,370.7734,427,374.7734,431,370.7734" style="stroke:#181818;stroke-width:1.0;"/><line style="stroke:#181818;stroke-width:1.0;" x1="35" x2="433" y1="370.7734" y2="370.7734"/><text fill="#000000" font-family="sans-serif" font-size="13" lengthAdjust="spacing" textLength="170" x="42" y="365.917">O cliente fornece o seu nome</text><polygon fill="#181818" points="779,397.125,789,401.125,779,405.125,783,401.125" style="stroke:#181818;stroke-width:1.0;"/><line style="stroke:#181818;stroke-width:1.0;" x1="449" x2="785" y1="401.125" y2="401.125"/><text fill="#000000" font-family="sans-serif" font-size="13" lengthAdjust="spacing" textLength="176" x="456" y="396.2686">a fala do cliente é reconhecida</text><polygon fill="#181818" points="964,427.4766,974,431.4766,964,435.4766,968,431.4766" style="stroke:#181818;stroke-width:1.0;"/><line style="stroke:#181818;stroke-width:1.0;" x1="796" x2="970" y1="431.4766" y2="431.4766"/><text fill="#000000" font-family="sans-serif" font-size="13" lengthAdjust="spacing" textLength="156" x="803" y="426.6201">o texto reconhecido da fala</text><polygon fill="#181818" points="1252,457.8281,1262,461.8281,1252,465.8281,1256,461.8281" style="stroke:#181818;stroke-width:1.0;"/><line style="stroke:#181818;stroke-width:1.0;" x1="981" x2="1258" y1="461.8281" y2="461.8281"/><text fill="#000000" font-family="sans-serif" font-size="13" lengthAdjust="spacing" textLength="193" x="988" y="456.9717">entidade name = nome do cliente</text><line style="stroke:#181818;stroke-width:1.0;" x1="1274" x2="1316" y1="492.1797" y2="492.1797"/><line style="stroke:#181818;stroke-width:1.0;" x1="1316" x2="1316" y1="492.1797" y2="505.1797"/><line style="stroke:#181818;stroke-width:1.0;" x1="1275" x2="1316" y1="505.1797" y2="505.1797"/><polygon fill="#181818" points="1285,501.1797,1275,505.1797,1285,509.1797,1281,505.1797" style="stroke:#181818;stroke-width:1.0;"/><text fill="#000000" font-family="sans-serif" font-size="13" lengthAdjust="spacing" textLength="122" x="1281" y="487.3232">validate_name(name)</text><polygon fill="#181818" points="812,531.5313,802,535.5313,812,539.5313,808,535.5313" style="stroke:#181818;stroke-width:1.0;"/><line style="stroke:#181818;stroke-width:1.0;stroke-dasharray:2.0,2.0;" x1="806" x2="1268" y1="535.5313" y2="535.5313"/><text fill="#000000" font-family="sans-serif" font-size="13" lengthAdjust="spacing" textLength="139" x="818" y="530.6748">continua o form_support</text><polygon fill="#181818" points="460,561.8828,450,565.8828,460,569.8828,456,565.8828" style="stroke:#181818;stroke-width:1.0;"/><line style="stroke:#181818;stroke-width:1.0;stroke-dasharray:2.0,2.0;" x1="454" x2="795" y1="565.8828" y2="565.8828"/><text fill="#000000" font-family="sans-serif" font-size="13" lengthAdjust="spacing" textLength="318" x="466" y="561.0264">formulário form_support e perguta o número de telefone</text><polygon fill="#181818" points="46,592.2344,36,596.2344,46,600.2344,42,596.2344" style="stroke:#181818;stroke-width:1.0;"/><line style="stroke:#181818;stroke-width:1.0;stroke-dasharray:2.0,2.0;" x1="40" x2="443" y1="596.2344" y2="596.2344"/><text fill="#000000" font-family="sans-serif" font-size="13" lengthAdjust="spacing" textLength="155" x="52" y="591.3779">Pede o número de telefone</text><polygon fill="#181818" points="427,622.5859,437,626.5859,427,630.5859,431,626.5859" style="stroke:#181818;stroke-width:1.0;"/><line style="stroke:#181818;stroke-width:1.0;" x1="35" x2="433" y1="626.5859" y2="626.5859"/><text fill="#000000" font-family="sans-serif" font-size="13" lengthAdjust="spacing" textLength="223" x="42" y="621.7295">O cliente fornece o número de telefone</text><polygon fill="#181818" points="779,652.9375,789,656.9375,779,660.9375,783,656.9375" style="stroke:#181818;stroke-width:1.0;"/><line style="stroke:#181818;stroke-width:1.0;" x1="449" x2="785" y1="656.9375" y2="656.9375"/><text fill="#000000" font-family="sans-serif" font-size="13" lengthAdjust="spacing" textLength="176" x="456" y="652.0811">a fala do cliente é reconhecida</text><polygon fill="#181818" points="964,683.2891,974,687.2891,964,691.2891,968,687.2891" style="stroke:#181818;stroke-width:1.0;"/><line style="stroke:#181818;stroke-width:1.0;" x1="796" x2="970" y1="687.2891" y2="687.2891"/><text fill="#000000" font-family="sans-serif" font-size="13" lengthAdjust="spacing" textLength="156" x="803" y="682.4326">o texto reconhecido da fala</text><polygon fill="#181818" points="1252,713.6406,1262,717.6406,1252,721.6406,1256,717.6406" style="stroke:#181818;stroke-width:1.0;"/><line style="stroke:#181818;stroke-width:1.0;" x1="981" x2="1258" y1="717.6406" y2="717.6406"/><text fill="#000000" font-family="sans-serif" font-size="13" lengthAdjust="spacing" textLength="259" x="988" y="712.7842">entidade phoneNumber = número de telefone</text><line style="stroke:#181818;stroke-width:1.0;" x1="1274" x2="1316" y1="747.9922" y2="747.9922"/><line style="stroke:#181818;stroke-width:1.0;" x1="1316" x2="1316" y1="747.9922" y2="760.9922"/><line style="stroke:#181818;stroke-width:1.0;" x1="1275" x2="1316" y1="760.9922" y2="760.9922"/><polygon fill="#181818" points="1285,756.9922,1275,760.9922,1285,764.9922,1281,760.9922" style="stroke:#181818;stroke-width:1.0;"/><text fill="#000000" font-family="sans-serif" font-size="13" lengthAdjust="spacing" textLength="218" x="1281" y="743.1357">validate_phoneNumber(phoneNumber)</text><polygon fill="#181818" points="812,787.3438,802,791.3438,812,795.3438,808,791.3438" style="stroke:#181818;stroke-width:1.0;"/><line style="stroke:#181818;stroke-width:1.0;stroke-dasharray:2.0,2.0;" x1="806" x2="1268" y1="791.3438" y2="791.3438"/><text fill="#000000" font-family="sans-serif" font-size="13" lengthAdjust="spacing" textLength="139" x="818" y="786.4873">continua o form_support</text><polygon fill="#181818" points="460,817.6953,450,821.6953,460,825.6953,456,821.6953" style="stroke:#181818;stroke-width:1.0;"/><line style="stroke:#181818;stroke-width:1.0;stroke-dasharray:2.0,2.0;" x1="454" x2="795" y1="821.6953" y2="821.6953"/><text fill="#000000" font-family="sans-serif" font-size="13" lengthAdjust="spacing" textLength="261" x="466" y="816.8389">formulário form_support e perguta o problema</text><polygon fill="#181818" points="46,848.0469,36,852.0469,46,856.0469,42,852.0469" style="stroke:#181818;stroke-width:1.0;"/><line style="stroke:#181818;stroke-width:1.0;stroke-dasharray:2.0,2.0;" x1="40" x2="443" y1="852.0469" y2="852.0469"/><text fill="#000000" font-family="sans-serif" font-size="13" lengthAdjust="spacing" textLength="159" x="52" y="847.1904">Pergunta qual é o problema</text><polygon fill="#181818" points="427,878.3984,437,882.3984,427,886.3984,431,882.3984" style="stroke:#181818;stroke-width:1.0;"/><line style="stroke:#181818;stroke-width:1.0;" x1="35" x2="433" y1="882.3984" y2="882.3984"/><text fill="#000000" font-family="sans-serif" font-size="13" lengthAdjust="spacing" textLength="175" x="42" y="877.542">O cliente descreve o problema</text><polygon fill="#181818" points="779,908.75,789,912.75,779,916.75,783,912.75" style="stroke:#181818;stroke-width:1.0;"/><line style="stroke:#181818;stroke-width:1.0;" x1="449" x2="785" y1="912.75" y2="912.75"/><text fill="#000000" font-family="sans-serif" font-size="13" lengthAdjust="spacing" textLength="176" x="456" y="907.8936">a fala do cliente é reconhecida</text><polygon fill="#181818" points="964,939.1016,974,943.1016,964,947.1016,968,943.1016" style="stroke:#181818;stroke-width:1.0;"/><line style="stroke:#181818;stroke-width:1.0;" x1="796" x2="970" y1="943.1016" y2="943.1016"/><text fill="#000000" font-family="sans-serif" font-size="13" lengthAdjust="spacing" textLength="156" x="803" y="938.2451">o texto reconhecido da fala</text><polygon fill="#181818" points="1252,969.4531,1262,973.4531,1252,977.4531,1256,973.4531" style="stroke:#181818;stroke-width:1.0;"/><line style="stroke:#181818;stroke-width:1.0;" x1="981" x2="1258" y1="973.4531" y2="973.4531"/><text fill="#000000" font-family="sans-serif" font-size="13" lengthAdjust="spacing" textLength="231" x="988" y="968.5967">entidade issue = descrição do problema</text><line style="stroke:#181818;stroke-width:1.0;" x1="1274" x2="1316" y1="1003.8047" y2="1003.8047"/><line style="stroke:#181818;stroke-width:1.0;" x1="1316" x2="1316" y1="1003.8047" y2="1016.8047"/><line style="stroke:#181818;stroke-width:1.0;" x1="1275" x2="1316" y1="1016.8047" y2="1016.8047"/><polygon fill="#181818" points="1285,1012.8047,1275,1016.8047,1285,1020.8047,1281,1016.8047" style="stroke:#181818;stroke-width:1.0;"/><text fill="#000000" font-family="sans-serif" font-size="13" lengthAdjust="spacing" textLength="120" x="1281" y="998.9482">validate_issue(issue)</text><polygon fill="#181818" points="460,1043.1563,450,1047.1563,460,1051.1563,456,1047.1563" style="stroke:#181818;stroke-width:1.0;"/><line style="stroke:#181818;stroke-width:1.0;stroke-dasharray:2.0,2.0;" x1="454" x2="1268" y1="1047.1563" y2="1047.1563"/><text fill="#000000" font-family="sans-serif" font-size="13" lengthAdjust="spacing" textLength="125" x="466" y="1042.2998">acaba o form_support</text><polygon fill="#181818" points="1252,1073.5078,1262,1077.5078,1252,1081.5078,1256,1077.5078" style="stroke:#181818;stroke-width:1.0;"/><line style="stroke:#181818;stroke-width:1.0;" x1="444" x2="1258" y1="1077.5078" y2="1077.5078"/><text fill="#000000" font-family="sans-serif" font-size="13" lengthAdjust="spacing" textLength="327" x="451" y="1072.6514">action_save_support_cases(name, phoneNumber, issue)</text><polygon fill="#181818" points="1598,1103.8594,1608,1107.8594,1598,1111.8594,1602,1107.8594" style="stroke:#181818;stroke-width:1.0;"/><line style="stroke:#181818;stroke-width:1.0;" x1="1274" x2="1604" y1="1107.8594" y2="1107.8594"/><text fill="#000000" font-family="sans-serif" font-size="13" lengthAdjust="spacing" textLength="317" x="1281" y="1103.0029">DataUpdateSupportCases(name, phoneNumber, issue)</text><polygon fill="#181818" points="1809,1134.2109,1819,1138.2109,1809,1142.2109,1813,1138.2109" style="stroke:#181818;stroke-width:1.0;"/><line style="stroke:#181818;stroke-width:1.0;" x1="1620" x2="1815" y1="1138.2109" y2="1138.2109"/><text fill="#000000" font-family="sans-serif" font-size="13" lengthAdjust="spacing" textLength="182" x="1627" y="1133.3545">conectar e INSERT na db_Tugs</text><polygon fill="#181818" points="1631,1164.5625,1621,1168.5625,1631,1172.5625,1627,1168.5625" style="stroke:#181818;stroke-width:1.0;"/><line style="stroke:#181818;stroke-width:1.0;stroke-dasharray:2.0,2.0;" x1="1625" x2="1825" y1="1168.5625" y2="1168.5625"/><text fill="#000000" font-family="sans-serif" font-size="13" lengthAdjust="spacing" textLength="112" x="1637" y="1163.7061">db_Tugs atualizada</text><polygon fill="#181818" points="1285,1194.9141,1275,1198.9141,1285,1202.9141,1281,1198.9141" style="stroke:#181818;stroke-width:1.0;"/><line style="stroke:#181818;stroke-width:1.0;stroke-dasharray:2.0,2.0;" x1="1279" x2="1614" y1="1198.9141" y2="1198.9141"/><text fill="#000000" font-family="sans-serif" font-size="13" lengthAdjust="spacing" textLength="167" x="1291" y="1194.0576">caso guardado com sucesso</text><polygon fill="#181818" points="41,1225.2656,31,1229.2656,41,1233.2656,37,1229.2656" style="stroke:#181818;stroke-width:1.0;"/><line style="stroke:#181818;stroke-width:1.0;stroke-dasharray:2.0,2.0;" x1="35" x2="1268" y1="1229.2656" y2="1229.2656"/><text fill="#000000" font-family="sans-serif" font-size="13" lengthAdjust="spacing" textLength="303" x="47" y="1224.4092">Informa que o caso de suporte foi gerado e guardado</text><!--MD5=[c80caa97bedd3f116ee826c04047d07e]
@startuml seqDiag

actor Cliente
participant Bot as "assistente Tugs"
participant speech_recognizer as "voice recognition"
participant NLU as "NLU"
participant Actions as "Actions"
participant connect as "database connectivity"
database Database as "db_Tugs"

activate Cliente

Cliente -> Bot: o cliente inicia a chamada e diz que quer abrir um caso de suporte
activate Bot
Bot -> speech_recognizer: fala é reconhecida
activate speech_recognizer
speech_recognizer -> NLU: o texto reconhecido da fala
deactivate speech_recognizer
activate NLU
NLU -> NLU: Intent open_support é reconhecido 
NLU -> Actions: response= abrir o formulário form_support
deactivate NLU
activate Actions
deactivate NLU
Actions - -> speech_recognizer: formulário form_support
deactivate Actions

activate speech_recognizer
speech_recognizer - -> Bot: formulário form_support e perguta o nome
deactivate speech_recognizer


Bot - -> Cliente: Começa o formulário e pergunta pelo nome
deactivate Bot

Cliente -> Bot: O cliente fornece o seu nome
activate Bot

Bot -> speech_recognizer: a fala do cliente é reconhecida
activate speech_recognizer
speech_recognizer -> NLU: o texto reconhecido da fala
deactivate speech_recognizer
activate NLU


NLU -> Actions: entidade name = nome do cliente
deactivate NLU
activate Actions

Actions -> Actions: validate_name(name)
Actions - -> speech_recognizer: continua o form_support
deactivate Actions

activate speech_recognizer
speech_recognizer - -> Bot: formulário form_support e perguta o número de telefone
deactivate speech_recognizer


Bot - -> Cliente: Pede o número de telefone
deactivate Bot

Cliente -> Bot: O cliente fornece o número de telefone
activate Bot

Bot -> speech_recognizer: a fala do cliente é reconhecida
activate speech_recognizer
speech_recognizer -> NLU: o texto reconhecido da fala
deactivate speech_recognizer
activate NLU

NLU -> Actions: entidade phoneNumber = número de telefone
deactivate NLU

activate Actions
Actions -> Actions: validate_phoneNumber(phoneNumber)
Actions - -> speech_recognizer: continua o form_support
deactivate Actions

activate speech_recognizer
speech_recognizer - -> Bot: formulário form_support e perguta o problema
deactivate speech_recognizer


Bot - -> Cliente: Pergunta qual é o problema
deactivate Bot

Cliente -> Bot: O cliente descreve o problema
activate Bot

Bot -> speech_recognizer: a fala do cliente é reconhecida
activate speech_recognizer
speech_recognizer -> NLU: o texto reconhecido da fala
deactivate speech_recognizer
activate NLU

NLU -> Actions: entidade issue = descrição do problema
deactivate NLU
activate Actions

Actions -> Actions: validate_issue(issue)
Actions - -> Bot: acaba o form_support
deactivate Actions


Bot -> Actions: action_save_support_cases(name, phoneNumber, issue)
deactivate Bot

activate Actions


Actions -> connect: DataUpdateSupportCases(name, phoneNumber, issue)
activate connect

connect -> Database: conectar e INSERT na db_Tugs
activate Database
Database - -> connect: db_Tugs atualizada
deactivate Database
connect - -> Actions: caso guardado com sucesso

deactivate connect

Actions - -> Cliente: Informa que o caso de suporte foi gerado e guardado
deactivate Actions

deactivate Cliente

@enduml

PlantUML version 1.2022.7(Mon Aug 22 18:01:30 WAT 2022)
(GPL source distribution)
Java Runtime: Java(TM) SE Runtime Environment
JVM: Java HotSpot(TM) 64-Bit Server VM
Default Encoding: Cp1252
Language: pt
Country: PT
--></g></svg>